<!--
  - Copyright 2023 Commonwealth Scientific and Industrial Research
  - Organisation (CSIRO) ABN 41 687 119 230.
  -
  - Licensed under the Apache License, Version 2.0 (the "License");
  - you may not use this file except in compliance with the License.
  - You may obtain a copy of the License at
  -
  -     http://www.apache.org/licenses/LICENSE-2.0
  -
  - Unless required by applicable law or agreed to in writing, software
  - distributed under the License is distributed on an "AS IS" BASIS,
  - WITHOUT WARRANTIES OR CONDITIONS OF ANY KIND, either express or implied.
  - See the License for the specific language governing permissions and
  - limitations under the License.
  -->

<svg viewBox="0 0 24 24" fill="none" xmlns="http://www.w3.org/2000/svg">
    <path d="M14 2H9C4 2 2 4 2 9V15C2 20 4 22 9 22" stroke="#1976d2" stroke-width="2.4" stroke-linecap="round" stroke-linejoin="round"/>
    <path d="M22 10V13" stroke="#1976d2" stroke-width="2.4" stroke-linecap="round" stroke-linejoin="round"/>
    <path d="M22 10H18C15 10 14 9 14 6V2L22 10Z" stroke="#1976d2" stroke-width="2.4" stroke-linecap="round" stroke-linejoin="round"/>
    <path opacity="0.9" transform="scale(0.8) translate(8,9)" d="M4.96997 12.7001L7.96997 12.6801C8.71997 12.6801 9.55997 13.2501 9.83997 13.9501L10.98 16.8301C11.24 17.4801 11.65 17.4801 11.91 16.8301L14.2 11.0201C14.42 10.4601 14.83 10.4401 15.11 10.9701L16.15 12.9401C16.46 13.5301 17.26 14.0101 17.92 14.0101H19.98" stroke="#D32F2F" stroke-width="2.4" stroke-linecap="round" stroke-linejoin="round"/>
</svg>